<?xml version="1.0" encoding="utf-8"?>
<!-- Generator: Adobe Illustrator 16.0.0, SVG Export Plug-In . SVG Version: 6.00 Build 0)  -->
<!DOCTYPE svg PUBLIC "-//W3C//DTD SVG 1.1//EN" "http://www.w3.org/Graphics/SVG/1.1/DTD/svg11.dtd">
<svg version="1.1" id="Laag_1" xmlns="http://www.w3.org/2000/svg" xmlns:xlink="http://www.w3.org/1999/xlink" x="0px" y="0px"
	 width="595.279px" height="516.667px" viewBox="0 0 595.279 516.667" enable-background="new 0 0 595.279 516.667"
	 xml:space="preserve">
<g id="Laag_1_1_" display="none">
	<title>Picto_Procurement-Process_FC</title>
	<polygon display="inline" points="446.227,163.255 149.054,163.255 0,421.179 149.054,678.634 446.227,678.634 595.28,421.179 	"/>
	<path display="inline" d="M392.025,413.703v27.102c-0.097,0.992-0.416,1.951-0.935,2.803c-0.446,0.877-1.354,1.42-2.336,1.402
		l-22.896,3.738c-1.322,3.83-2.883,7.576-4.672,11.213c3.271,4.672,7.943,10.279,13.083,16.822c0.518,0.852,0.838,1.811,0.935,2.803
		c0.062,1.021-0.273,2.023-0.935,2.803c-3.728,4.65-7.788,9.021-12.148,13.084c-5.606,5.607-9.812,8.877-11.682,8.877
		c-1.142-0.092-2.253-0.408-3.271-0.934l-16.821-13.084c-3.652,1.756-7.396,3.316-11.214,4.674
		c-0.647,7.688-1.74,15.332-3.271,22.896c-0.41,2.045-2.126,3.568-4.205,3.736h-27.101c-0.992-0.098-1.951-0.416-2.805-0.934
		c-0.905-0.643-1.433-1.693-1.4-2.805l-3.271-22.43c-3.906-1.117-7.67-2.686-11.214-4.672l-17.289,13.084
		c-1.861,1.367-4.442,1.168-6.074-0.469c-14.018-13.082-21.025-21.025-21.025-23.361c0.097-0.994,0.416-1.951,0.935-2.805
		c0.936-1.4,2.804-3.738,6.074-7.943c2.165-3.09,4.505-6.055,7.009-8.877c-2.022-3.912-3.742-7.973-5.14-12.148l-22.428-3.738
		c-0.983,0.02-1.891-0.525-2.338-1.4c-0.518-0.854-0.837-1.811-0.935-2.805v-27.1c0.098-0.994,0.417-1.951,0.935-2.805
		c0.447-0.875,1.354-1.42,2.338-1.4l22.896-3.738c1.322-3.832,2.883-7.578,4.672-11.215c-3.271-4.672-7.942-10.279-13.083-16.82
		c-0.519-0.854-0.838-1.811-0.935-2.803c-0.062-1.021,0.273-2.024,0.935-2.805c3.729-4.648,7.788-9.021,12.148-13.083
		c6.073-5.606,9.812-8.878,11.682-8.878c1.142,0.092,2.253,0.41,3.271,0.936l16.82,13.082c3.577-1.918,7.333-3.483,11.214-4.672
		c0.601-7.539,1.692-15.031,3.271-22.428c0.41-2.045,2.126-3.57,4.205-3.738h27.102c0.991,0.098,1.95,0.418,2.803,0.936
		c0.876,0.447,1.42,1.354,1.401,2.336l3.271,22.428c3.906,1.118,7.67,2.686,11.214,4.672l17.288-13.082
		c0.853-0.52,1.812-0.839,2.804-0.936c1.226,0.055,2.388,0.553,3.271,1.402c14.018,13.082,21.025,21.025,21.025,23.363
		c-0.097,0.992-0.417,1.95-0.935,2.803c-1.402,1.401-3.271,4.205-6.074,7.942c-2.804,3.738-5.141,6.542-6.542,8.878
		c2.336,4.672,3.738,8.877,5.141,12.148l22.429,3.271c0.919,0.178,1.747,0.674,2.336,1.4
		C391.558,411.833,392.025,412.769,392.025,413.703z M324.74,453.419c14.451-14.744,14.215-38.41-0.527-52.861
		c-14.743-14.451-38.411-14.214-52.861,0.529c-14.451,14.742-14.214,38.41,0.528,52.861c7.002,6.861,16.422,10.701,26.229,10.684
		C308.152,464.73,317.79,460.671,324.74,453.419z"/>
	<path display="inline" d="M298.108,571.167c-37.43-0.08-73.334-14.846-99.992-41.119c-26.525-26.49-41.335-62.504-41.118-99.992
		c-0.011-37.447,14.768-73.385,41.118-99.991"/>
	<polyline display="inline" points="178.024,318.382 211.198,318.382 211.198,352.025 	"/>
	<path display="inline" d="M297.173,285.675c37.431,0.08,73.334,14.844,99.991,41.117c26.526,26.492,41.335,62.504,41.119,99.994
		c-0.081,37.43-14.845,73.332-41.119,99.99"/>
	<polyline display="inline" points="416.789,537.992 383.615,537.992 383.615,504.818 	"/>
</g>
<g id="Picto_x5F_Procurement-Process" display="none">
	<polygon display="inline" fill="#FF9933" points="446.577,163.258 149.157,163.258 0.449,420.826 149.157,678.396 446.577,678.396 
		595.28,420.826 	"/>
	<path display="inline" fill="#3F6D87" d="M392.142,413.578v27.17c0,0.98-0.342,1.934-1.021,2.861
		c-0.688,0.932-1.475,1.447-2.354,1.539l-22.76,3.529c-1.081,3.43-2.646,7.146-4.699,11.16c3.33,4.697,7.729,10.332,13.214,16.889
		c0.684,0.979,1.031,1.961,1.031,2.938c0,1.172-0.349,2.104-1.031,2.791c-2.255,2.938-6.288,7.314-12.115,13.143
		c-5.826,5.826-9.668,8.734-11.524,8.734c-1.081,0-2.107-0.338-3.089-1.025l-16.889-13.215c-3.627,1.859-7.391,3.375-11.311,4.553
		c-1.077,10.574-2.199,18.162-3.372,22.76c-0.689,2.35-2.158,3.527-4.407,3.527h-27.314c-1.081,0-2.057-0.369-2.941-1.104
		c-0.877-0.732-1.369-1.59-1.465-2.57l-3.377-22.469c-3.335-0.979-7-2.494-11.01-4.551l-17.33,13.068
		c-0.693,0.688-1.67,1.025-2.942,1.025c-1.081,0-2.104-0.385-3.081-1.172c-14.1-13.021-21.153-20.854-21.153-23.496
		c0-0.885,0.346-1.811,1.031-2.791c0.977-1.373,2.983-3.965,6.022-7.783c3.029-3.816,5.34-6.809,6.898-8.957
		c-2.249-4.309-3.96-8.32-5.137-12.045l-22.322-3.523c-0.977-0.096-1.812-0.562-2.5-1.396c-0.686-0.83-1.027-1.783-1.027-2.863
		v-27.168c0-0.977,0.342-1.93,1.027-2.861c0.688-0.928,1.469-1.443,2.354-1.541l22.761-3.527c1.082-3.424,2.646-7.143,4.698-11.156
		c-3.33-4.702-7.733-10.334-13.213-16.893c-0.688-1.074-1.03-2.056-1.03-2.938c0-1.172,0.342-2.148,1.03-2.934
		c2.149-2.939,6.168-7.293,12.037-13.07c5.877-5.774,9.746-8.668,11.604-8.668c1.071,0,2.106,0.348,3.089,1.029l16.887,13.219
		c3.326-1.766,7.096-3.332,11.308-4.702c1.071-10.572,2.199-18.109,3.376-22.613c0.68-2.351,2.157-3.526,4.406-3.526h27.314
		c1.072,0,2.057,0.369,2.934,1.102c0.887,0.734,1.373,1.595,1.475,2.57l3.372,22.468c3.331,0.981,6.999,2.495,11.015,4.557
		l17.33-13.073c0.784-0.682,1.766-1.029,2.942-1.029c1.071,0,2.104,0.393,3.08,1.178c14.095,13.021,21.147,20.854,21.147,23.494
		c0,0.883-0.342,1.816-1.025,2.792c-1.179,1.567-3.229,4.211-6.17,7.93c-2.938,3.72-5.138,6.658-6.605,8.812
		c2.249,4.697,3.914,8.715,4.991,12.041l22.32,3.379c0.978,0.197,1.812,0.709,2.501,1.541
		C391.801,411.544,392.142,412.503,392.142,413.578 M324.74,453.521c7.337-7.344,11.011-16.203,11.011-26.58
		s-3.674-19.236-11.011-26.582c-7.347-7.344-16.212-11.012-26.584-11.012c-10.376,0-19.241,3.668-26.582,11.012
		c-7.348,7.346-11.01,16.205-11.01,26.582s3.663,19.236,11.01,26.58c7.341,7.346,16.206,11.016,26.582,11.016
		C308.529,464.537,317.394,460.867,324.74,453.521"/>
	<path display="inline" fill="none" stroke="#FFFFFF" stroke-width="16.1663" stroke-linecap="round" stroke-miterlimit="10" d="
		M298.156,570.914c-38.957,0-74.228-15.791-99.762-41.32c-25.534-25.533-41.321-60.803-41.321-99.76
		c0-38.963,15.788-74.233,41.321-99.765"/>
	
		<polyline display="inline" fill="none" stroke="#FFFFFF" stroke-width="16.1663" stroke-linecap="round" stroke-linejoin="round" stroke-miterlimit="10" points="
		178.281,318.427 211.655,318.427 211.655,351.796 	"/>
	<path display="inline" fill="none" stroke="#FFFFFF" stroke-width="16.1663" stroke-linecap="round" stroke-miterlimit="10" d="
		M297.253,285.449c38.959,0,74.233,15.793,99.768,41.321c25.529,25.534,41.321,60.802,41.321,99.765
		c0,38.957-15.792,74.229-41.321,99.76"/>
	
		<polyline display="inline" fill="none" stroke="#FFFFFF" stroke-width="16.1663" stroke-linecap="round" stroke-linejoin="round" stroke-miterlimit="10" points="
		417.129,537.937 383.756,537.937 383.756,504.574 	"/>
</g>
<g id="Picto_x5F_Procurement-Development_1_" display="none">
	<polyline display="inline" fill="#FF9933" points="594.28,422.384 446.214,165.925 150.079,165.925 2.013,422.384 150.079,678.845 
		446.214,678.845 594.28,422.384 	"/>
	<path display="inline" fill="none" stroke="#3EA678" stroke-width="13.9567" stroke-linecap="round" stroke-miterlimit="10" d="
		M169.197,576.246c0,0,53.028,6.225,90.087-44.365c37.059-50.588,34.506-140.869,49.834-172.778
		c15.338-31.914,33.229-54.487,49.203-62.66"/>
	<path display="inline" fill="#3EA678" d="M162.495,599.988c11.826,0,21.403-9.58,21.403-21.398c0-11.82-9.577-21.404-21.403-21.404
		c-11.822,0-21.395,9.584-21.395,21.404C141.101,590.408,150.674,599.988,162.495,599.988"/>
	<path display="inline" fill="none" stroke="#FFFFFF" stroke-width="13.9567" stroke-linecap="round" stroke-miterlimit="10" d="
		M162.495,599.988c11.826,0,21.403-9.58,21.403-21.398c0-11.82-9.577-21.404-21.403-21.404c-11.822,0-21.395,9.584-21.395,21.404
		C141.101,590.408,150.674,599.988,162.495,599.988"/>
	<path display="inline" fill="#3EA678" d="M251.565,561.853c11.821,0,21.397-9.584,21.397-21.395c0-11.826-9.577-21.41-21.397-21.41
		c-11.822,0-21.399,9.584-21.399,21.41C230.166,552.269,239.742,561.853,251.565,561.853"/>
	<path display="inline" fill="none" stroke="#FFFFFF" stroke-width="13.9567" stroke-linecap="round" stroke-miterlimit="10" d="
		M251.565,561.853c11.821,0,21.397-9.584,21.397-21.395c0-11.826-9.577-21.41-21.397-21.41c-11.822,0-21.399,9.584-21.399,21.41
		C230.166,552.269,239.742,561.853,251.565,561.853"/>
	<path display="inline" fill="#3EA678" d="M307.113,389.848c11.822,0,21.396-9.584,21.396-21.396
		c0-11.822-9.573-21.406-21.396-21.406c-11.825,0-21.402,9.584-21.402,21.406C285.711,380.264,295.287,389.848,307.113,389.848"/>
	<path display="inline" fill="none" stroke="#FFFFFF" stroke-width="13.9567" stroke-linecap="round" stroke-miterlimit="10" d="
		M307.113,389.848c11.822,0,21.396-9.584,21.396-21.396c0-11.822-9.573-21.406-21.396-21.406c-11.825,0-21.402,9.584-21.402,21.406
		C285.711,380.264,295.287,389.848,307.113,389.848"/>
	
		<polyline display="inline" fill="none" stroke="#563701" stroke-width="16.0967" stroke-linecap="round" stroke-linejoin="round" stroke-miterlimit="10" points="
		397.791,225.267 431.016,225.178 431.102,258.404 	"/>
	
		<line display="inline" fill="none" stroke="#563701" stroke-width="14.5847" stroke-linecap="round" stroke-miterlimit="10" stroke-dasharray="8.4298,21.0746" x1="373.448" y1="282.899" x2="427.858" y2="228.49"/>
	<path display="inline" fill="#3EA678" d="M358.321,317.845c11.82,0,21.395-9.584,21.395-21.396c0-11.82-9.573-21.404-21.395-21.404
		c-11.831,0-21.403,9.584-21.403,21.404C336.916,308.261,346.49,317.845,358.321,317.845"/>
	<path display="inline" fill="none" stroke="#FFFFFF" stroke-width="13.9567" stroke-linecap="round" stroke-miterlimit="10" d="
		M358.321,317.845c11.82,0,21.395-9.584,21.395-21.396c0-11.82-9.573-21.404-21.395-21.404c-11.831,0-21.403,9.584-21.403,21.404
		C336.916,308.261,346.49,317.845,358.321,317.845"/>
</g>
<g id="Picto_x5F_Category_x5F_Management_1_" display="none">
	<polygon display="inline" fill="#FF9933" points="446.281,165.199 150.3,165.199 2.305,421.529 150.3,677.861 446.281,677.861 
		594.28,421.529 	"/>
	<path display="inline" fill="none" stroke="#563701" stroke-width="16.0887" stroke-linecap="round" stroke-miterlimit="10" d="
		M214.046,518.816c0-46.078,1.698-98.674,80.811-98.674c79.116,0,86.852-36.414,86.852-74.984"/>
	
		<polyline display="inline" fill="none" stroke="#563701" stroke-width="16.0887" stroke-linecap="round" stroke-linejoin="round" stroke-miterlimit="10" points="
		357.421,358.041 380.902,334.557 404.383,358.041 	"/>
	
		<line display="inline" fill="none" stroke="#3F6D87" stroke-width="16.0887" stroke-linecap="round" stroke-linejoin="round" stroke-miterlimit="10" x1="297.411" y1="520.13" x2="297.411" y2="569.839"/>
	
		<line display="inline" fill="none" stroke="#3F6D87" stroke-width="16.0887" stroke-linecap="round" stroke-linejoin="round" stroke-miterlimit="10" x1="322.264" y1="544.986" x2="272.56" y2="544.986"/>
	
		<line display="inline" fill="none" stroke="#3F6D87" stroke-width="16.0887" stroke-linecap="round" stroke-linejoin="round" stroke-miterlimit="10" x1="380.902" y1="482.773" x2="380.902" y2="532.478"/>
	
		<line display="inline" fill="none" stroke="#3F6D87" stroke-width="16.0887" stroke-linecap="round" stroke-linejoin="round" stroke-miterlimit="10" x1="405.76" y1="507.628" x2="356.05" y2="507.628"/>
	
		<line display="inline" fill="none" stroke="#3F6D87" stroke-width="16.0887" stroke-linecap="round" stroke-linejoin="round" stroke-miterlimit="10" x1="234.98" y1="333.186" x2="234.98" y2="382.893"/>
	
		<line display="inline" fill="none" stroke="#3F6D87" stroke-width="16.0887" stroke-linecap="round" stroke-linejoin="round" stroke-miterlimit="10" x1="259.831" y1="358.041" x2="210.122" y2="358.041"/>
	<path display="inline" fill="#3EA678" d="M408.532,265.526c0,15.261-12.369,27.63-27.631,27.63
		c-15.258,0-27.632-12.369-27.632-27.63c0-15.262,12.374-27.631,27.632-27.631C396.163,237.895,408.532,250.264,408.532,265.526"/>
	
		<circle display="inline" fill="none" stroke="#FFFFFF" stroke-width="13.9497" stroke-linecap="round" stroke-miterlimit="10" cx="380.901" cy="265.526" r="27.631"/>
	<path display="inline" fill="#3EA678" d="M241.677,577.535c0,15.26-12.375,27.629-27.633,27.629
		c-15.267,0-27.631-12.369-27.631-27.629c0-15.262,12.365-27.631,27.631-27.631C229.303,549.904,241.677,562.273,241.677,577.535"/>
	<path display="inline" fill="none" stroke="#FFFFFF" stroke-width="13.9497" stroke-linecap="round" stroke-miterlimit="10" d="
		M241.677,577.535c0,15.26-12.375,27.629-27.633,27.629c-15.267,0-27.631-12.369-27.631-27.629
		c0-15.262,12.365-27.631,27.631-27.631C229.303,549.904,241.677,562.273,241.677,577.535z"/>
</g>
<g id="Picto_x5F_Negotiation_1_" display="none">
	<polygon display="inline" fill="#FF9933" points="445.105,165.596 149.035,165.596 1,421.998 149.035,678.4 445.105,678.4 
		593.138,421.998 	"/>
	<path display="inline" fill="none" stroke="#563701" stroke-width="21.349" stroke-linecap="round" stroke-miterlimit="10" d="
		M102.909,415.48c0,0,11.641,51.279,14.067,60.496c2.426,9.221,12.127,28.801,28.625,28.801h48.511"/>
	<path display="inline" fill="#3F6D87" d="M202.365,344.5c0,14.469-11.724,26.194-26.199,26.194c-14.467,0-26.2-11.726-26.2-26.194
		c0-14.472,11.732-26.203,26.2-26.203C190.641,318.296,202.365,330.028,202.365,344.5"/>
	
		<polyline display="inline" fill="none" stroke="#3F6D87" stroke-width="32.0235" stroke-linecap="round" stroke-linejoin="round" stroke-miterlimit="10" points="
		228.564,556.029 228.564,471.125 153.849,471.125 172.768,388.162 	"/>
	
		<polyline display="inline" fill="none" stroke="#3F6D87" stroke-width="14.2327" stroke-linecap="round" stroke-linejoin="round" stroke-miterlimit="10" points="
		257.676,412.906 211.581,412.906 173.74,385.738 	"/>
	
		<line display="inline" fill="none" stroke="#563701" stroke-width="14.2327" stroke-linecap="round" stroke-linejoin="round" stroke-miterlimit="10" x1="204.304" y1="431.828" x2="303.142" y2="431.828"/>
	<rect x="270.293" y="431.828" display="inline" fill="#FFFFFF" width="40.262" height="133.158"/>
	
		<rect x="270.293" y="431.828" display="inline" fill="none" stroke="#563701" stroke-width="14.2327" stroke-linecap="round" stroke-linejoin="round" stroke-miterlimit="10" width="40.262" height="133.158"/>
	<path display="inline" fill="none" stroke="#563701" stroke-width="21.349" stroke-linecap="round" stroke-miterlimit="10" d="
		M488.482,415.48c0,0-11.646,51.279-14.072,60.496c-2.426,9.221-12.127,28.801-28.623,28.801h-48.518"/>
	<path display="inline" fill="#3F6D87" d="M389.021,344.5c0,14.469,11.725,26.194,26.201,26.194
		c14.467,0,26.199-11.726,26.199-26.194c0-14.472-11.732-26.203-26.199-26.203C400.745,318.296,389.021,330.028,389.021,344.5"/>
	
		<polyline display="inline" fill="none" stroke="#3F6D87" stroke-width="32.0235" stroke-linecap="round" stroke-linejoin="round" stroke-miterlimit="10" points="
		362.822,556.029 362.822,471.125 437.536,471.125 418.618,388.162 	"/>
	
		<polyline display="inline" fill="none" stroke="#3F6D87" stroke-width="14.2327" stroke-linecap="round" stroke-linejoin="round" stroke-miterlimit="10" points="
		333.717,412.906 379.806,412.906 417.646,385.738 	"/>
	
		<line display="inline" fill="none" stroke="#563701" stroke-width="14.2327" stroke-linecap="round" stroke-linejoin="round" stroke-miterlimit="10" x1="387.081" y1="431.828" x2="288.244" y2="431.828"/>
	<rect x="280.831" y="431.828" display="inline" fill="#563701" width="40.267" height="133.158"/>
	
		<rect x="280.831" y="431.828" display="inline" fill="none" stroke="#563701" stroke-width="14.2327" stroke-linecap="round" stroke-linejoin="round" stroke-miterlimit="10" width="40.267" height="133.158"/>
	<path display="inline" fill="#FFFFFF" d="M250.925,249.643c8.183-3.443,17.071-5.169,26.682-5.169
		c9.612,0,18.51,1.726,26.687,5.169c8.177,3.45,14.63,8.14,19.361,14.079c4.729,5.939,7.097,12.404,7.097,19.398
		c0,6.996-2.367,13.461-7.097,19.396c-4.731,5.94-11.186,10.634-19.361,14.081c-8.176,3.445-17.074,5.172-26.687,5.172
		c-4.328,0-8.752-0.405-13.282-1.211c-6.24,4.428-13.235,7.65-20.984,9.66c-1.812,0.457-3.974,0.857-6.49,1.212h-0.228
		c-0.554,0-1.067-0.2-1.548-0.603c-0.477-0.404-0.768-0.934-0.864-1.59c-0.054-0.148-0.081-0.311-0.081-0.488
		c0-0.176,0.019-0.338,0.041-0.492c0.022-0.15,0.074-0.303,0.15-0.452c0.077-0.152,0.14-0.275,0.191-0.378
		c0.045-0.102,0.136-0.235,0.262-0.413c0.123-0.177,0.227-0.302,0.301-0.378c0.072-0.078,0.19-0.203,0.34-0.375
		c0.149-0.176,0.25-0.293,0.3-0.344c0.25-0.297,0.831-0.932,1.739-1.885c0.904-0.957,1.56-1.701,1.962-2.228
		c0.4-0.529,0.963-1.257,1.694-2.188c0.731-0.933,1.363-1.9,1.89-2.908c0.527-1.006,1.045-2.111,1.549-3.315
		c-6.241-3.629-11.151-8.081-14.722-13.363c-3.57-5.284-5.36-10.922-5.36-16.909c0-6.994,2.366-13.459,7.096-19.398
		C236.295,257.782,242.745,253.093,250.925,249.643 M299.195,258.062c-6.69-2.614-13.884-3.927-21.589-3.927
		c-7.698,0-14.894,1.313-21.584,3.927c-6.695,2.611-12.015,6.161-15.965,10.641c-3.948,4.48-5.929,9.283-5.929,14.418
		c0,4.127,1.335,8.104,4.008,11.926c2.66,3.824,6.414,7.146,11.245,9.964l7.317,4.229l-2.638,6.338
		c1.708-1.009,3.271-1.99,4.677-2.943l3.321-2.34l4.002,0.752c3.929,0.709,7.771,1.061,11.545,1.061
		c7.705,0,14.898-1.311,21.589-3.929c6.691-2.614,12.017-6.159,15.967-10.638c3.951-4.483,5.929-9.289,5.929-14.42
		c0-5.135-1.978-9.938-5.929-14.418C311.211,264.223,305.886,260.673,299.195,258.062"/>
	<path display="inline" fill="#E6E7E7" d="M339.654,332.712c0.508,1.205,1.021,2.312,1.553,3.322
		c0.521,1.004,1.152,1.977,1.886,2.902c0.729,0.934,1.295,1.661,1.692,2.189c0.406,0.531,1.064,1.271,1.963,2.229
		c0.908,0.954,1.49,1.583,1.738,1.885c0.053,0.051,0.15,0.168,0.308,0.344c0.145,0.172,0.262,0.301,0.336,0.377
		c0.071,0.074,0.176,0.199,0.299,0.377c0.127,0.177,0.219,0.311,0.264,0.418c0.051,0.097,0.113,0.225,0.195,0.371
		c0.072,0.154,0.123,0.308,0.145,0.457c0.023,0.15,0.041,0.312,0.041,0.488c0,0.178-0.026,0.338-0.076,0.493
		c-0.149,0.702-0.477,1.257-0.981,1.66c-0.504,0.399-1.06,0.577-1.662,0.526c-2.516-0.35-4.678-0.754-6.49-1.207
		c-7.75-2.014-14.744-5.236-20.983-9.658c-4.529,0.799-8.953,1.203-13.281,1.203c-13.642,0-25.515-3.32-35.625-9.963
		c2.912,0.199,5.129,0.303,6.636,0.303c8.108,0,15.879-1.135,23.325-3.396c7.449-2.269,14.094-5.512,19.926-9.738
		c6.295-4.627,11.123-9.963,14.494-16.004c3.369-6.035,5.061-12.426,5.061-19.172c0-3.871-0.581-7.699-1.739-11.472
		c6.494,3.573,11.623,8.052,15.397,13.433c3.779,5.388,5.664,11.176,5.664,17.363c0,6.037-1.791,11.689-5.358,16.944
		C350.804,324.648,345.894,329.089,339.654,332.712"/>
</g>
<g id="Picto_x5F_Supplier_x5F_Relationship_x5F_Management" display="none">
	<polygon display="inline" fill="#FF9933" points="446.513,166.009 150.235,166.009 2.095,422.589 150.235,679.177 446.513,679.177 
		594.653,422.589 	"/>
	<path display="inline" fill="#FFFFFF" d="M235.179,534.884c1.036-0.996,2.264-1.795,3.423-2.664
		c-41.264-21.164-69.622-64.055-69.622-113.527c0-1.365,0.159-2.686,0.205-4.039h-5.422c-5.428,0-10.506-0.871-15.123-2.537
		c-0.097,2.182-0.168,4.371-0.168,6.576c0,55.887,31.127,104.633,76.944,129.846c0.474-0.941,0.892-1.896,1.414-2.811
		C229.198,541.57,232.002,537.925,235.179,534.884"/>
	<path display="inline" fill="#FFFFFF" d="M254.025,298.541c13.336-4.735,27.618-7.449,42.559-7.449
		c21.908,0,42.54,5.557,60.572,15.326c-1.026-4.059-1.555-8.317-1.555-12.771c0-3.527,0.354-6.963,1.036-10.291
		c-18.372-8.182-38.683-12.773-60.055-12.773c-15.664,0-30.759,2.465-44.944,6.991c1.699,5.075,2.617,10.454,2.617,16.072
		C254.256,295.307,254.17,296.937,254.025,298.541"/>
	<path display="inline" fill="#FFFFFF" d="M424.186,418.695c0,49.471-28.358,92.361-69.617,113.52
		c1.154,0.873,2.378,1.674,3.409,2.66c3.187,3.049,5.986,6.695,8.359,10.854c0.518,0.912,0.936,1.867,1.413,2.805
		c45.816-25.209,76.939-73.953,76.939-129.84c0-1.354-0.062-2.695-0.101-4.041h-20.608
		C424.023,416.007,424.186,417.332,424.186,418.695"/>
	<path display="inline" fill="#563701" d="M361.473,591.632c0,7.373-2.236,13.201-6.723,17.465
		c-4.486,4.271-10.449,6.408-17.887,6.408h-80.567c-7.437,0-13.396-2.137-17.882-6.408c-4.485-4.264-6.73-10.092-6.73-17.465
		c0-3.254,0.108-6.439,0.322-9.539c0.214-3.104,0.646-6.455,1.286-10.051c0.65-3.596,1.464-6.928,2.45-10
		c0.982-3.072,2.304-6.072,3.963-8.99s3.563-5.41,5.714-7.469c2.15-2.049,4.777-3.699,7.882-4.932
		c3.104-1.229,6.531-1.842,10.277-1.842c0.55,0,1.845,0.66,3.873,1.982c2.032,1.322,4.318,2.795,6.868,4.422
		s5.868,3.105,9.955,4.428c4.091,1.318,8.19,1.982,12.309,1.982s8.218-0.664,12.306-1.982c4.086-1.322,7.403-2.801,9.959-4.428
		c2.55-1.627,4.836-3.1,6.863-4.422c2.026-1.322,3.321-1.982,3.871-1.982c3.75,0,7.179,0.613,10.282,1.842
		c3.101,1.23,5.728,2.883,7.882,4.932c2.149,2.059,4.056,4.551,5.715,7.469c1.657,2.918,2.977,5.918,3.963,8.99
		c0.981,3.072,1.8,6.404,2.44,10c0.646,3.596,1.077,6.945,1.295,10.051C361.373,585.193,361.473,588.378,361.473,591.632
		 M321.61,484.285c6.914,6.914,10.373,15.258,10.373,25.025c0,9.777-3.459,18.113-10.373,25.027
		c-6.913,6.914-15.254,10.369-25.026,10.369c-9.776,0-18.118-3.455-25.026-10.369c-6.914-6.914-10.373-15.25-10.373-25.027
		c0-9.768,3.459-18.111,10.373-25.025c6.908-6.914,15.25-10.369,25.026-10.369C306.356,473.916,314.697,477.371,321.61,484.285"/>
	<path display="inline" fill="#3F6D87" d="M268.943,375.968c0,7.371-2.246,13.199-6.732,17.468
		c-4.485,4.272-10.449,6.409-17.881,6.409h-80.566c-7.438,0-13.4-2.137-17.887-6.409c-4.485-4.269-6.727-10.097-6.727-17.468
		c0-3.256,0.104-6.439,0.322-9.539c0.214-3.104,0.646-6.454,1.291-10.053c0.646-3.596,1.454-6.926,2.44-10
		c0.982-3.069,2.305-6.067,3.963-8.985c1.659-2.918,3.564-5.409,5.714-7.47c2.15-2.053,4.782-3.7,7.883-4.93
		c3.104-1.229,6.531-1.844,10.281-1.844c0.555,0,1.842,0.662,3.873,1.982c2.027,1.322,4.313,2.798,6.863,4.423
		c2.55,1.629,5.868,3.104,9.955,4.427c4.091,1.32,8.191,1.98,12.309,1.98c4.118,0,8.219-0.66,12.31-1.98
		c4.086-1.322,7.403-2.798,9.954-4.427c2.55-1.625,4.841-3.101,6.867-4.423c2.027-1.32,3.318-1.982,3.873-1.982
		c3.746,0,7.174,0.614,10.277,1.844c3.104,1.229,5.732,2.877,7.882,4.93c2.15,2.061,4.056,4.552,5.713,7.47
		c1.659,2.918,2.982,5.916,3.965,8.985c0.981,3.074,1.8,6.404,2.444,10c0.646,3.599,1.073,6.947,1.291,10.053
		C268.833,369.529,268.943,372.712,268.943,375.968 M229.07,268.621c6.918,6.912,10.373,15.258,10.373,25.027
		c0,9.775-3.454,18.116-10.373,25.027c-6.914,6.916-15.254,10.371-25.027,10.371c-9.776,0-18.112-3.455-25.026-10.371
		c-6.913-6.911-10.372-15.252-10.372-25.027c0-9.77,3.459-18.115,10.372-25.027c6.914-6.914,15.25-10.371,25.026-10.371
		C213.816,258.25,222.156,261.707,229.07,268.621"/>
	<path display="inline" fill="#3EA678" d="M470.714,375.968c0,7.371-2.245,13.199-6.731,17.468
		c-4.486,4.272-10.445,6.409-17.882,6.409h-80.567c-7.437,0-13.399-2.137-17.887-6.409c-4.486-4.269-6.727-10.097-6.727-17.468
		c0-3.256,0.104-6.439,0.321-9.539c0.214-3.104,0.646-6.454,1.291-10.053c0.646-3.596,1.459-6.926,2.441-10
		c0.98-3.069,2.304-6.067,3.963-8.985s3.562-5.409,5.719-7.47c2.149-2.053,4.777-3.7,7.881-4.93
		c3.102-1.229,6.527-1.844,10.277-1.844c0.555,0,1.846,0.662,3.873,1.982c2.027,1.322,4.312,2.798,6.868,4.423
		c2.545,1.629,5.863,3.104,9.95,4.427c4.091,1.32,8.189,1.98,12.309,1.98s8.218-0.66,12.309-1.98
		c4.088-1.322,7.404-2.798,9.955-4.427c2.551-1.625,4.842-3.101,6.868-4.423c2.026-1.32,3.317-1.982,3.872-1.982
		c3.746,0,7.173,0.614,10.277,1.844c3.104,1.229,5.73,2.877,7.882,4.93c2.149,2.061,4.055,4.552,5.714,7.47
		c1.663,2.918,2.981,5.916,3.963,8.985c0.986,3.074,1.801,6.404,2.445,10c0.646,3.599,1.073,6.947,1.291,10.053
		C470.604,369.529,470.714,372.712,470.714,375.968 M430.842,268.621c6.918,6.912,10.372,15.258,10.372,25.027
		c0,9.775-3.454,18.116-10.372,25.027c-6.909,6.916-15.255,10.371-25.027,10.371c-9.769,0-18.113-3.455-25.027-10.371
		c-6.913-6.911-10.367-15.252-10.367-25.027c0-9.77,3.454-18.115,10.367-25.027c6.914-6.914,15.26-10.371,25.027-10.371
		C415.587,258.25,423.932,261.707,430.842,268.621"/>
</g>
<g id="Picto_x5F_Supplier_x5F_Chain_x5F_Management" display="none">
	<polygon display="inline" fill="#FF9933" points="447.002,166.224 150.449,166.224 2.168,423.048 150.449,679.878 447.002,679.878 
		595.28,423.048 	"/>
	
		<circle display="inline" fill="none" stroke="#FFFFFF" stroke-width="18.6355" stroke-linecap="round" stroke-miterlimit="10" cx="288.527" cy="429.149" r="126.622"/>
	<path display="inline" fill="#FF9933" d="M329.91,470.371c1.288,0,2.397,0.473,3.336,1.41c0.941,0.938,1.409,2.047,1.409,3.34
		v66.088l39.766-31.82c0.837-0.688,1.827-1.041,2.966-1.041c1.284,0,2.397,0.473,3.34,1.41c0.938,0.941,1.406,2.057,1.406,3.34
		v28.111l39.764-31.82c0.837-0.688,1.824-1.041,2.967-1.041c1.287,0,2.397,0.473,3.335,1.41c0.941,0.941,1.41,2.057,1.41,3.34
		v85.459c0,1.279-0.469,2.395-1.41,3.336c-0.938,0.941-2.048,1.406-3.335,1.406H301.425c-1.282,0-2.396-0.465-3.34-1.406
		c-0.94-0.941-1.404-2.057-1.404-3.336V475.121c0-1.293,0.464-2.402,1.404-3.34c0.942-0.938,2.058-1.41,3.34-1.41H329.91z"/>
	<path display="inline" fill="none" stroke="#FF9933" stroke-width="16.5017" stroke-miterlimit="10" d="M329.91,470.371
		c1.288,0,2.397,0.473,3.336,1.41c0.941,0.938,1.409,2.047,1.409,3.34v66.088l39.766-31.82c0.837-0.688,1.827-1.041,2.966-1.041
		c1.284,0,2.397,0.473,3.34,1.41c0.938,0.941,1.406,2.057,1.406,3.34v28.111l39.764-31.82c0.837-0.688,1.824-1.041,2.967-1.041
		c1.287,0,2.397,0.473,3.335,1.41c0.941,0.941,1.41,2.057,1.41,3.34v85.459c0,1.279-0.469,2.395-1.41,3.336
		c-0.938,0.941-2.048,1.406-3.335,1.406H301.425c-1.282,0-2.396-0.465-3.34-1.406c-0.94-0.941-1.404-2.057-1.404-3.336V475.121
		c0-1.293,0.464-2.402,1.404-3.34c0.942-0.938,2.058-1.41,3.34-1.41H329.91z"/>
	<path display="inline" fill="#FF9933" d="M340.671,321.464c-8.017,0.246-14.568,3.416-19.663,9.494h-9.938
		c-4.059,0-7.471-1.004-10.241-3.002c-2.768-2.006-4.148-4.937-4.148-8.795c0-17.457,3.061-26.183,9.193-26.183
		c0.301,0,1.374,0.519,3.229,1.556c1.857,1.043,4.264,2.088,7.23,3.158c2.972,1.061,5.908,1.587,8.83,1.587
		c3.312,0,6.599-0.563,9.864-1.706c-0.251,1.838-0.374,3.467-0.374,4.899C334.656,309.348,336.662,315.677,340.671,321.464
		 M338.587,260.558c3.713,3.717,5.567,8.189,5.567,13.436c0,5.241-1.854,9.713-5.567,13.422c-3.702,3.707-8.181,5.563-13.422,5.563
		s-9.718-1.856-13.431-5.563c-3.704-3.709-5.561-8.181-5.561-13.422c0-5.246,1.855-9.719,5.561-13.436
		c3.713-3.708,8.188-5.555,13.431-5.555C330.406,255.002,334.885,256.85,338.587,260.558 M420.117,368.721
		c0,5.928-1.812,10.614-5.419,14.05c-3.612,3.443-8.402,5.164-14.392,5.164h-64.833c-5.981,0-10.782-1.721-14.396-5.164
		c-3.607-3.436-5.414-8.122-5.414-14.05c0-2.625,0.088-5.187,0.265-7.685c0.174-2.498,0.52-5.191,1.038-8.084
		c0.518-2.895,1.173-5.574,1.965-8.05s1.856-4.877,3.188-7.229c1.338-2.348,2.871-4.354,4.601-6.01
		c1.729-1.66,3.85-2.979,6.342-3.972c2.498-0.987,5.251-1.479,8.272-1.479c0.489,0,1.561,0.527,3.192,1.593
		c1.629,1.06,3.436,2.248,5.41,3.558c1.979,1.311,4.627,2.498,7.938,3.567c3.312,1.06,6.651,1.592,10.01,1.592
		c3.366,0,6.705-0.532,10.019-1.592c3.312-1.069,5.959-2.257,7.936-3.567c1.981-1.31,3.784-2.498,5.419-3.558
		c1.633-1.065,2.696-1.593,3.188-1.593c3.018,0,5.773,0.492,8.271,1.479c2.499,0.992,4.613,2.312,6.343,3.972
		c1.729,1.656,3.268,3.664,4.604,6.01c1.328,2.353,2.395,4.755,3.186,7.229c0.793,2.476,1.446,5.155,1.966,8.05
		c0.521,2.893,0.864,5.586,1.037,8.084C420.027,363.535,420.117,366.096,420.117,368.721 M388.033,282.337
		c5.561,5.56,8.343,12.27,8.343,20.136c0,7.862-2.782,14.573-8.343,20.137c-5.564,5.569-12.279,8.349-20.146,8.349
		c-7.862,0-14.578-2.779-20.133-8.349c-5.564-5.563-8.35-12.274-8.35-20.137c0-7.866,2.784-14.577,8.35-20.136
		c5.555-5.569,12.271-8.346,20.133-8.346C375.754,273.992,382.469,276.768,388.033,282.337 M424.049,260.558
		c3.707,3.717,5.56,8.189,5.56,13.436c0,5.241-1.853,9.713-5.56,13.422c-3.708,3.707-8.187,5.563-13.428,5.563
		c-5.239,0-9.723-1.856-13.426-5.563c-3.712-3.709-5.563-8.181-5.563-13.422c0-5.246,1.853-9.719,5.563-13.436
		c3.703-3.708,8.187-5.555,13.426-5.555C415.863,255.002,420.341,256.85,424.049,260.558 M439.108,319.162
		c0,3.858-1.384,6.789-4.158,8.795c-2.767,1.998-6.179,3.002-10.236,3.002h-9.941c-5.091-6.078-11.646-9.248-19.654-9.494
		c3.999-5.787,6.011-12.116,6.011-18.991c0-1.433-0.127-3.062-0.373-4.899c3.267,1.143,6.552,1.707,9.868,1.707
		c2.915,0,5.859-0.527,8.821-1.588c2.967-1.068,5.383-2.115,7.233-3.158c1.856-1.037,2.931-1.556,3.229-1.556
		C436.04,292.979,439.108,301.705,439.108,319.162"/>
	<path display="inline" fill="none" stroke="#FF9933" stroke-width="16.5017" stroke-miterlimit="10" d="M340.671,321.464
		c-8.017,0.246-14.568,3.416-19.663,9.494h-9.938c-4.059,0-7.471-1.004-10.241-3.002c-2.768-2.006-4.148-4.937-4.148-8.795
		c0-17.457,3.061-26.183,9.193-26.183c0.301,0,1.374,0.519,3.229,1.556c1.857,1.043,4.264,2.088,7.23,3.158
		c2.972,1.061,5.908,1.587,8.83,1.587c3.312,0,6.599-0.563,9.864-1.706c-0.251,1.838-0.374,3.467-0.374,4.899
		C334.656,309.348,336.662,315.677,340.671,321.464z M338.587,260.558c3.713,3.717,5.567,8.189,5.567,13.436
		c0,5.241-1.854,9.713-5.567,13.422c-3.702,3.707-8.181,5.563-13.422,5.563s-9.718-1.856-13.431-5.563
		c-3.704-3.709-5.561-8.181-5.561-13.422c0-5.246,1.855-9.719,5.561-13.436c3.713-3.708,8.188-5.555,13.431-5.555
		C330.406,255.002,334.885,256.85,338.587,260.558z M420.117,368.721c0,5.928-1.812,10.614-5.419,14.05
		c-3.612,3.443-8.402,5.164-14.392,5.164h-64.833c-5.981,0-10.782-1.721-14.396-5.164c-3.607-3.436-5.414-8.122-5.414-14.05
		c0-2.625,0.088-5.187,0.265-7.685c0.174-2.498,0.52-5.191,1.038-8.084c0.518-2.895,1.173-5.574,1.965-8.05s1.856-4.877,3.188-7.229
		c1.338-2.348,2.871-4.354,4.601-6.01c1.729-1.66,3.85-2.979,6.342-3.972c2.498-0.987,5.251-1.479,8.272-1.479
		c0.489,0,1.561,0.527,3.192,1.593c1.629,1.06,3.436,2.248,5.41,3.558c1.979,1.311,4.627,2.498,7.938,3.567
		c3.312,1.06,6.651,1.592,10.01,1.592c3.366,0,6.705-0.532,10.019-1.592c3.312-1.069,5.959-2.257,7.936-3.567
		c1.981-1.31,3.784-2.498,5.419-3.558c1.633-1.065,2.696-1.593,3.188-1.593c3.018,0,5.773,0.492,8.271,1.479
		c2.499,0.992,4.613,2.312,6.343,3.972c1.729,1.656,3.268,3.664,4.604,6.01c1.328,2.353,2.395,4.755,3.186,7.229
		c0.793,2.476,1.446,5.155,1.966,8.05c0.521,2.893,0.864,5.586,1.037,8.084C420.027,363.535,420.117,366.096,420.117,368.721z
		 M388.033,282.337c5.561,5.56,8.343,12.27,8.343,20.136c0,7.862-2.782,14.573-8.343,20.137c-5.564,5.569-12.279,8.349-20.146,8.349
		c-7.862,0-14.578-2.779-20.133-8.349c-5.564-5.563-8.35-12.274-8.35-20.137c0-7.866,2.784-14.577,8.35-20.136
		c5.555-5.569,12.271-8.346,20.133-8.346C375.754,273.992,382.469,276.768,388.033,282.337z M424.049,260.558
		c3.707,3.717,5.56,8.189,5.56,13.436c0,5.241-1.853,9.713-5.56,13.422c-3.708,3.707-8.187,5.563-13.428,5.563
		c-5.239,0-9.723-1.856-13.426-5.563c-3.712-3.709-5.563-8.181-5.563-13.422c0-5.246,1.853-9.719,5.563-13.436
		c3.703-3.708,8.187-5.555,13.426-5.555C415.863,255.002,420.341,256.85,424.049,260.558z M439.108,319.162
		c0,3.858-1.384,6.789-4.158,8.795c-2.767,1.998-6.179,3.002-10.236,3.002h-9.941c-5.091-6.078-11.646-9.248-19.654-9.494
		c3.999-5.787,6.011-12.116,6.011-18.991c0-1.433-0.127-3.062-0.373-4.899c3.267,1.143,6.552,1.707,9.868,1.707
		c2.915,0,5.859-0.527,8.821-1.588c2.967-1.068,5.383-2.115,7.233-3.158c1.856-1.037,2.931-1.556,3.229-1.556
		C436.04,292.979,439.108,301.705,439.108,319.162z"/>
	<path display="inline" fill="#FF9933" d="M226.183,386.419v75.961c0,0.742-0.102,1.4-0.296,1.969
		c-0.2,0.564-0.537,1.025-1.006,1.375c-0.469,0.342-0.878,0.623-1.22,0.848c-0.354,0.223-0.928,0.373-1.747,0.445
		c-0.813,0.076-1.374,0.121-1.665,0.146c-0.3,0.027-0.933,0.027-1.896,0c-0.965-0.023-1.521-0.033-1.67-0.033
		c0,5.242-1.852,9.713-5.561,13.426c-3.712,3.709-8.188,5.568-13.43,5.568c-5.242,0-9.718-1.859-13.421-5.568
		c-3.713-3.713-5.565-8.184-5.565-13.426h-28.49c0,5.242-1.851,9.713-5.555,13.426c-3.713,3.709-8.194,5.568-13.435,5.568
		c-5.242,0-9.714-1.859-13.427-5.568c-3.702-3.713-5.56-8.184-5.56-13.426h-4.75c-0.15,0-0.701,0.01-1.666,0.033
		c-0.964,0.027-1.597,0.027-1.892,0c-0.302-0.023-0.855-0.068-1.67-0.146c-0.814-0.072-1.396-0.225-1.747-0.445
		c-0.347-0.225-0.751-0.506-1.225-0.848c-0.464-0.35-0.8-0.811-1.001-1.375c-0.2-0.566-0.296-1.227-0.296-1.969
		c0-1.289,0.469-2.396,1.415-3.34c0.933-0.938,2.047-1.406,3.33-1.406V433.9c0-0.396-0.009-1.266-0.036-2.604
		c-0.022-1.332-0.022-2.27,0-2.814c0.027-0.547,0.091-1.393,0.188-2.559c0.095-1.16,0.259-2.078,0.478-2.748
		c0.232-0.668,0.573-1.424,1.042-2.26c0.479-0.842,1.033-1.58,1.669-2.23l14.696-14.682c0.933-0.941,2.184-1.729,3.739-2.379
		c1.556-0.641,3.003-0.955,4.341-0.955h11.866v-14.25c0-1.287,0.473-2.393,1.41-3.338c0.941-0.938,2.057-1.401,3.34-1.401h75.961
		c1.282,0,2.397,0.464,3.339,1.401C225.715,384.026,226.183,385.132,226.183,386.419 M112.241,429.15h28.481v-18.99h-11.716
		c-0.642,0-1.188,0.223-1.633,0.666l-14.464,14.467c-0.45,0.447-0.668,0.988-0.668,1.635L112.241,429.15L112.241,429.15z
		 M137.901,473.806c1.884-1.875,2.821-4.104,2.821-6.676c0-2.57-0.938-4.799-2.821-6.678c-1.875-1.879-4.095-2.816-6.674-2.816
		c-2.566,0-4.792,0.938-6.675,2.816c-1.88,1.879-2.821,4.107-2.821,6.678c0,2.572,0.941,4.801,2.821,6.676
		c1.883,1.879,4.107,2.82,6.675,2.82C133.806,476.626,136.027,475.685,137.901,473.806 M204.372,473.806
		c1.875-1.875,2.821-4.104,2.821-6.676c0-2.57-0.946-4.799-2.821-6.678s-4.104-2.816-6.679-2.816c-2.566,0-4.795,0.938-6.675,2.816
		c-1.879,1.879-2.816,4.107-2.816,6.678c0,2.572,0.938,4.801,2.816,6.676c1.879,1.879,4.107,2.82,6.675,2.82
		C200.268,476.626,202.497,475.685,204.372,473.806"/>
	<path display="inline" fill="none" stroke="#FF9933" stroke-width="16.5017" stroke-miterlimit="10" d="M226.183,386.419v75.961
		c0,0.742-0.102,1.4-0.296,1.969c-0.2,0.564-0.537,1.025-1.006,1.375c-0.469,0.342-0.878,0.623-1.22,0.848
		c-0.354,0.223-0.928,0.373-1.747,0.445c-0.813,0.076-1.374,0.121-1.665,0.146c-0.3,0.027-0.933,0.027-1.896,0
		c-0.965-0.023-1.521-0.033-1.67-0.033c0,5.242-1.852,9.713-5.561,13.426c-3.712,3.709-8.188,5.568-13.43,5.568
		c-5.242,0-9.718-1.859-13.421-5.568c-3.713-3.713-5.565-8.184-5.565-13.426h-28.49c0,5.242-1.851,9.713-5.555,13.426
		c-3.713,3.709-8.194,5.568-13.435,5.568c-5.242,0-9.714-1.859-13.427-5.568c-3.702-3.713-5.56-8.184-5.56-13.426h-4.75
		c-0.15,0-0.701,0.01-1.666,0.033c-0.964,0.027-1.597,0.027-1.892,0c-0.302-0.023-0.855-0.068-1.67-0.146
		c-0.814-0.072-1.396-0.225-1.747-0.445c-0.347-0.225-0.751-0.506-1.225-0.848c-0.464-0.35-0.8-0.811-1.001-1.375
		c-0.2-0.566-0.296-1.227-0.296-1.969c0-1.289,0.469-2.396,1.415-3.34c0.933-0.938,2.047-1.406,3.33-1.406V433.9
		c0-0.396-0.009-1.266-0.036-2.604c-0.022-1.332-0.022-2.27,0-2.814c0.027-0.547,0.091-1.393,0.188-2.559
		c0.095-1.16,0.259-2.078,0.478-2.748c0.232-0.668,0.573-1.424,1.042-2.26c0.479-0.842,1.033-1.58,1.669-2.23l14.696-14.682
		c0.933-0.941,2.184-1.729,3.739-2.379c1.556-0.641,3.003-0.955,4.341-0.955h11.866v-14.25c0-1.287,0.473-2.393,1.41-3.338
		c0.941-0.938,2.057-1.401,3.34-1.401h75.961c1.282,0,2.397,0.464,3.339,1.401C225.715,384.026,226.183,385.132,226.183,386.419z
		 M112.241,429.15h28.481v-18.99h-11.716c-0.642,0-1.188,0.223-1.633,0.666l-14.464,14.467c-0.45,0.447-0.668,0.988-0.668,1.635
		L112.241,429.15L112.241,429.15z M137.901,473.806c1.884-1.875,2.821-4.104,2.821-6.676c0-2.57-0.938-4.799-2.821-6.678
		c-1.875-1.879-4.095-2.816-6.674-2.816c-2.566,0-4.792,0.938-6.675,2.816c-1.88,1.879-2.821,4.107-2.821,6.678
		c0,2.572,0.941,4.801,2.821,6.676c1.883,1.879,4.107,2.82,6.675,2.82C133.806,476.626,136.027,475.685,137.901,473.806z
		 M204.372,473.806c1.875-1.875,2.821-4.104,2.821-6.676c0-2.57-0.946-4.799-2.821-6.678s-4.104-2.816-6.679-2.816
		c-2.566,0-4.795,0.938-6.675,2.816c-1.879,1.879-2.816,4.107-2.816,6.678c0,2.572,0.938,4.801,2.816,6.676
		c1.879,1.879,4.107,2.82,6.675,2.82C200.268,476.626,202.497,475.685,204.372,473.806z"/>
	<path display="inline" fill="#3F6D87" d="M340.671,321.464c-8.017,0.246-14.568,3.416-19.663,9.494h-9.938
		c-4.059,0-7.471-1.004-10.241-3.002c-2.768-2.006-4.148-4.937-4.148-8.795c0-17.457,3.061-26.183,9.193-26.183
		c0.301,0,1.374,0.519,3.229,1.556c1.857,1.043,4.264,2.088,7.23,3.158c2.972,1.061,5.908,1.587,8.83,1.587
		c3.312,0,6.599-0.563,9.864-1.706c-0.251,1.838-0.374,3.467-0.374,4.899C334.656,309.348,336.662,315.677,340.671,321.464
		 M338.587,260.558c3.713,3.717,5.567,8.189,5.567,13.436c0,5.241-1.854,9.713-5.567,13.422c-3.702,3.707-8.181,5.563-13.422,5.563
		s-9.718-1.856-13.431-5.563c-3.704-3.709-5.561-8.181-5.561-13.422c0-5.246,1.855-9.719,5.561-13.436
		c3.713-3.708,8.188-5.555,13.431-5.555C330.406,255.002,334.885,256.85,338.587,260.558 M420.117,368.721
		c0,5.928-1.812,10.614-5.419,14.05c-3.612,3.443-8.402,5.164-14.392,5.164h-64.833c-5.981,0-10.782-1.721-14.396-5.164
		c-3.607-3.436-5.414-8.122-5.414-14.05c0-2.625,0.088-5.187,0.265-7.685c0.174-2.498,0.52-5.191,1.038-8.084
		c0.518-2.895,1.173-5.574,1.965-8.05s1.856-4.877,3.188-7.229c1.338-2.348,2.871-4.354,4.601-6.01
		c1.729-1.66,3.85-2.979,6.342-3.972c2.498-0.987,5.251-1.479,8.272-1.479c0.489,0,1.561,0.527,3.192,1.593
		c1.629,1.06,3.436,2.248,5.41,3.558c1.979,1.311,4.627,2.498,7.938,3.567c3.312,1.06,6.651,1.592,10.01,1.592
		c3.366,0,6.705-0.532,10.019-1.592c3.312-1.069,5.959-2.257,7.936-3.567c1.981-1.31,3.784-2.498,5.419-3.558
		c1.633-1.065,2.696-1.593,3.188-1.593c3.018,0,5.773,0.492,8.271,1.479c2.499,0.992,4.613,2.312,6.343,3.972
		c1.729,1.656,3.268,3.664,4.604,6.01c1.328,2.353,2.395,4.755,3.186,7.229c0.793,2.476,1.446,5.155,1.966,8.05
		c0.521,2.893,0.864,5.586,1.037,8.084C420.027,363.535,420.117,366.096,420.117,368.721 M388.033,282.337
		c5.561,5.56,8.343,12.27,8.343,20.136c0,7.862-2.782,14.573-8.343,20.137c-5.564,5.569-12.279,8.349-20.146,8.349
		c-7.862,0-14.578-2.779-20.133-8.349c-5.564-5.563-8.35-12.274-8.35-20.137c0-7.866,2.784-14.577,8.35-20.136
		c5.555-5.569,12.271-8.346,20.133-8.346C375.754,273.992,382.469,276.768,388.033,282.337 M424.049,260.558
		c3.707,3.717,5.56,8.189,5.56,13.436c0,5.241-1.853,9.713-5.56,13.422c-3.708,3.707-8.187,5.563-13.428,5.563
		c-5.239,0-9.723-1.856-13.426-5.563c-3.712-3.709-5.563-8.181-5.563-13.422c0-5.246,1.853-9.719,5.563-13.436
		c3.703-3.708,8.187-5.555,13.426-5.555C415.863,255.002,420.341,256.85,424.049,260.558 M439.108,319.162
		c0,3.858-1.384,6.789-4.158,8.795c-2.767,1.998-6.179,3.002-10.236,3.002h-9.941c-5.091-6.078-11.646-9.248-19.654-9.494
		c3.999-5.787,6.011-12.116,6.011-18.991c0-1.433-0.127-3.062-0.373-4.899c3.267,1.143,6.552,1.707,9.868,1.707
		c2.915,0,5.859-0.527,8.821-1.588c2.967-1.068,5.383-2.115,7.233-3.158c1.856-1.037,2.931-1.556,3.229-1.556
		C436.04,292.979,439.108,301.705,439.108,319.162"/>
	<path display="inline" fill="none" stroke="#FF9933" stroke-width="4.6589" stroke-miterlimit="10" d="M340.671,321.464
		c-8.017,0.246-14.568,3.416-19.663,9.494h-9.938c-4.059,0-7.471-1.004-10.241-3.002c-2.768-2.006-4.148-4.937-4.148-8.795
		c0-17.457,3.061-26.183,9.193-26.183c0.301,0,1.374,0.519,3.229,1.556c1.857,1.043,4.264,2.088,7.23,3.158
		c2.972,1.061,5.908,1.587,8.83,1.587c3.312,0,6.599-0.563,9.864-1.706c-0.251,1.838-0.374,3.467-0.374,4.899
		C334.656,309.348,336.662,315.677,340.671,321.464z M338.587,260.558c3.713,3.717,5.567,8.189,5.567,13.436
		c0,5.241-1.854,9.713-5.567,13.422c-3.702,3.707-8.181,5.563-13.422,5.563s-9.718-1.856-13.431-5.563
		c-3.704-3.709-5.561-8.181-5.561-13.422c0-5.246,1.855-9.719,5.561-13.436c3.713-3.708,8.188-5.555,13.431-5.555
		C330.406,255.002,334.885,256.85,338.587,260.558z M420.117,368.721c0,5.928-1.812,10.614-5.419,14.05
		c-3.612,3.443-8.402,5.164-14.392,5.164h-64.833c-5.981,0-10.782-1.721-14.396-5.164c-3.607-3.436-5.414-8.122-5.414-14.05
		c0-2.625,0.088-5.187,0.265-7.685c0.174-2.498,0.52-5.191,1.038-8.084c0.518-2.895,1.173-5.574,1.965-8.05s1.856-4.877,3.188-7.229
		c1.338-2.348,2.871-4.354,4.601-6.01c1.729-1.66,3.85-2.979,6.342-3.972c2.498-0.987,5.251-1.479,8.272-1.479
		c0.489,0,1.561,0.527,3.192,1.593c1.629,1.06,3.436,2.248,5.41,3.558c1.979,1.311,4.627,2.498,7.938,3.567
		c3.312,1.06,6.651,1.592,10.01,1.592c3.366,0,6.705-0.532,10.019-1.592c3.312-1.069,5.959-2.257,7.936-3.567
		c1.981-1.31,3.784-2.498,5.419-3.558c1.633-1.065,2.696-1.593,3.188-1.593c3.018,0,5.773,0.492,8.271,1.479
		c2.499,0.992,4.613,2.312,6.343,3.972c1.729,1.656,3.268,3.664,4.604,6.01c1.328,2.353,2.395,4.755,3.186,7.229
		c0.793,2.476,1.446,5.155,1.966,8.05c0.521,2.893,0.864,5.586,1.037,8.084C420.027,363.535,420.117,366.096,420.117,368.721z
		 M388.033,282.337c5.561,5.56,8.343,12.27,8.343,20.136c0,7.862-2.782,14.573-8.343,20.137c-5.564,5.569-12.279,8.349-20.146,8.349
		c-7.862,0-14.578-2.779-20.133-8.349c-5.564-5.563-8.35-12.274-8.35-20.137c0-7.866,2.784-14.577,8.35-20.136
		c5.555-5.569,12.271-8.346,20.133-8.346C375.754,273.992,382.469,276.768,388.033,282.337z M424.049,260.558
		c3.707,3.717,5.56,8.189,5.56,13.436c0,5.241-1.853,9.713-5.56,13.422c-3.708,3.707-8.187,5.563-13.428,5.563
		c-5.239,0-9.723-1.856-13.426-5.563c-3.712-3.709-5.563-8.181-5.563-13.422c0-5.246,1.853-9.719,5.563-13.436
		c3.703-3.708,8.187-5.555,13.426-5.555C415.863,255.002,420.341,256.85,424.049,260.558z M439.108,319.162
		c0,3.858-1.384,6.789-4.158,8.795c-2.767,1.998-6.179,3.002-10.236,3.002h-9.941c-5.091-6.078-11.646-9.248-19.654-9.494
		c3.999-5.787,6.011-12.116,6.011-18.991c0-1.433-0.127-3.062-0.373-4.899c3.267,1.143,6.552,1.707,9.868,1.707
		c2.915,0,5.859-0.527,8.821-1.588c2.967-1.068,5.383-2.115,7.233-3.158c1.856-1.037,2.931-1.556,3.229-1.556
		C436.04,292.979,439.108,301.705,439.108,319.162z"/>
	<path display="inline" fill="#563701" d="M329.91,470.371c1.288,0,2.397,0.473,3.336,1.41c0.941,0.938,1.409,2.047,1.409,3.34
		v66.088l39.766-31.82c0.837-0.688,1.827-1.041,2.966-1.041c1.284,0,2.397,0.473,3.34,1.41c0.938,0.941,1.406,2.057,1.406,3.34
		v28.111l39.764-31.82c0.837-0.688,1.824-1.041,2.967-1.041c1.287,0,2.397,0.473,3.335,1.41c0.941,0.941,1.41,2.057,1.41,3.34
		v85.459c0,1.279-0.469,2.395-1.41,3.336c-0.938,0.941-2.048,1.406-3.335,1.406H301.425c-1.282,0-2.396-0.465-3.34-1.406
		c-0.94-0.941-1.404-2.057-1.404-3.336V475.121c0-1.293,0.464-2.402,1.404-3.34c0.942-0.938,2.058-1.41,3.34-1.41H329.91z"/>
	<path display="inline" fill="none" stroke="#FF9933" stroke-width="4.6589" stroke-miterlimit="10" d="M329.91,470.371
		c1.288,0,2.397,0.473,3.336,1.41c0.941,0.938,1.409,2.047,1.409,3.34v66.088l39.766-31.82c0.837-0.688,1.827-1.041,2.966-1.041
		c1.284,0,2.397,0.473,3.34,1.41c0.938,0.941,1.406,2.057,1.406,3.34v28.111l39.764-31.82c0.837-0.688,1.824-1.041,2.967-1.041
		c1.287,0,2.397,0.473,3.335,1.41c0.941,0.941,1.41,2.057,1.41,3.34v85.459c0,1.279-0.469,2.395-1.41,3.336
		c-0.938,0.941-2.048,1.406-3.335,1.406H301.425c-1.282,0-2.396-0.465-3.34-1.406c-0.94-0.941-1.404-2.057-1.404-3.336V475.121
		c0-1.293,0.464-2.402,1.404-3.34c0.942-0.938,2.058-1.41,3.34-1.41H329.91z"/>
	<path display="inline" fill="#3EA678" d="M226.183,386.419v75.961c0,0.742-0.102,1.4-0.296,1.969
		c-0.2,0.564-0.537,1.025-1.006,1.375c-0.469,0.342-0.878,0.623-1.22,0.848c-0.354,0.223-0.928,0.373-1.747,0.445
		c-0.813,0.076-1.374,0.121-1.665,0.146c-0.3,0.027-0.933,0.027-1.896,0c-0.965-0.023-1.521-0.033-1.67-0.033
		c0,5.242-1.852,9.713-5.561,13.426c-3.712,3.709-8.188,5.568-13.43,5.568c-5.242,0-9.718-1.859-13.421-5.568
		c-3.713-3.713-5.565-8.184-5.565-13.426h-28.49c0,5.242-1.851,9.713-5.555,13.426c-3.713,3.709-8.194,5.568-13.435,5.568
		c-5.242,0-9.714-1.859-13.427-5.568c-3.702-3.713-5.56-8.184-5.56-13.426h-4.75c-0.15,0-0.701,0.01-1.666,0.033
		c-0.964,0.027-1.597,0.027-1.892,0c-0.302-0.023-0.855-0.068-1.67-0.146c-0.814-0.072-1.396-0.225-1.747-0.445
		c-0.347-0.225-0.751-0.506-1.225-0.848c-0.464-0.35-0.8-0.811-1.001-1.375c-0.2-0.566-0.296-1.227-0.296-1.969
		c0-1.289,0.469-2.396,1.415-3.34c0.933-0.938,2.047-1.406,3.33-1.406V433.9c0-0.396-0.009-1.266-0.036-2.604
		c-0.022-1.332-0.022-2.27,0-2.814c0.027-0.547,0.091-1.393,0.188-2.559c0.095-1.16,0.259-2.078,0.478-2.748
		c0.232-0.668,0.573-1.424,1.042-2.26c0.479-0.842,1.033-1.58,1.669-2.23l14.696-14.682c0.933-0.941,2.184-1.729,3.739-2.379
		c1.556-0.641,3.003-0.955,4.341-0.955h11.866v-14.25c0-1.287,0.473-2.393,1.41-3.338c0.941-0.938,2.057-1.401,3.34-1.401h75.961
		c1.282,0,2.397,0.464,3.339,1.401C225.715,384.026,226.183,385.132,226.183,386.419 M112.241,429.15h28.481v-18.99h-11.716
		c-0.642,0-1.188,0.223-1.633,0.666l-14.464,14.467c-0.45,0.447-0.668,0.988-0.668,1.635L112.241,429.15L112.241,429.15z
		 M137.901,473.806c1.884-1.875,2.821-4.104,2.821-6.676c0-2.57-0.938-4.799-2.821-6.678c-1.875-1.879-4.095-2.816-6.674-2.816
		c-2.566,0-4.792,0.938-6.675,2.816c-1.88,1.879-2.821,4.107-2.821,6.678c0,2.572,0.941,4.801,2.821,6.676
		c1.883,1.879,4.107,2.82,6.675,2.82C133.806,476.626,136.027,475.685,137.901,473.806 M204.372,473.806
		c1.875-1.875,2.821-4.104,2.821-6.676c0-2.57-0.946-4.799-2.821-6.678s-4.104-2.816-6.679-2.816c-2.566,0-4.795,0.938-6.675,2.816
		c-1.879,1.879-2.816,4.107-2.816,6.678c0,2.572,0.938,4.801,2.816,6.676c1.879,1.879,4.107,2.82,6.675,2.82
		C200.268,476.626,202.497,475.685,204.372,473.806"/>
	<path display="inline" fill="none" stroke="#3EA678" stroke-width="4.6589" stroke-miterlimit="10" d="M226.183,386.419v75.961
		c0,0.742-0.102,1.4-0.296,1.969c-0.2,0.564-0.537,1.025-1.006,1.375c-0.469,0.342-0.878,0.623-1.22,0.848
		c-0.354,0.223-0.928,0.373-1.747,0.445c-0.813,0.076-1.374,0.121-1.665,0.146c-0.3,0.027-0.933,0.027-1.896,0
		c-0.965-0.023-1.521-0.033-1.67-0.033c0,5.242-1.852,9.713-5.561,13.426c-3.712,3.709-8.188,5.568-13.43,5.568
		c-5.242,0-9.718-1.859-13.421-5.568c-3.713-3.713-5.565-8.184-5.565-13.426h-28.49c0,5.242-1.851,9.713-5.555,13.426
		c-3.713,3.709-8.194,5.568-13.435,5.568c-5.242,0-9.714-1.859-13.427-5.568c-3.702-3.713-5.56-8.184-5.56-13.426h-4.75
		c-0.15,0-0.701,0.01-1.666,0.033c-0.964,0.027-1.597,0.027-1.892,0c-0.302-0.023-0.855-0.068-1.67-0.146
		c-0.814-0.072-1.396-0.225-1.747-0.445c-0.347-0.225-0.751-0.506-1.225-0.848c-0.464-0.35-0.8-0.811-1.001-1.375
		c-0.2-0.566-0.296-1.227-0.296-1.969c0-1.289,0.469-2.396,1.415-3.34c0.933-0.938,2.047-1.406,3.33-1.406V433.9
		c0-0.396-0.009-1.266-0.036-2.604c-0.022-1.332-0.022-2.27,0-2.814c0.027-0.547,0.091-1.393,0.188-2.559
		c0.095-1.16,0.259-2.078,0.478-2.748c0.232-0.668,0.573-1.424,1.042-2.26c0.479-0.842,1.033-1.58,1.669-2.23l14.696-14.682
		c0.933-0.941,2.184-1.729,3.739-2.379c1.556-0.641,3.003-0.955,4.341-0.955h11.866v-14.25c0-1.287,0.473-2.393,1.41-3.338
		c0.941-0.938,2.057-1.401,3.34-1.401h75.961c1.282,0,2.397,0.464,3.339,1.401C225.715,384.026,226.183,385.132,226.183,386.419z
		 M112.241,429.15h28.481v-18.99h-11.716c-0.642,0-1.188,0.223-1.633,0.666l-14.464,14.467c-0.45,0.447-0.668,0.988-0.668,1.635
		L112.241,429.15L112.241,429.15z M137.901,473.806c1.884-1.875,2.821-4.104,2.821-6.676c0-2.57-0.938-4.799-2.821-6.678
		c-1.875-1.879-4.095-2.816-6.674-2.816c-2.566,0-4.792,0.938-6.675,2.816c-1.88,1.879-2.821,4.107-2.821,6.678
		c0,2.572,0.941,4.801,2.821,6.676c1.883,1.879,4.107,2.82,6.675,2.82C133.806,476.626,136.027,475.685,137.901,473.806z
		 M204.372,473.806c1.875-1.875,2.821-4.104,2.821-6.676c0-2.57-0.946-4.799-2.821-6.678s-4.104-2.816-6.679-2.816
		c-2.566,0-4.795,0.938-6.675,2.816c-1.879,1.879-2.816,4.107-2.816,6.678c0,2.572,0.938,4.801,2.816,6.676
		c1.879,1.879,4.107,2.82,6.675,2.82C200.268,476.626,202.497,475.685,204.372,473.806z"/>
</g>
<g id="Picto_x5F_Cost_x5F_Management">
	<polygon fill="#FE5000" points="445.423,1 149.139,1 1,257.576 149.139,514.164 445.423,514.164 593.557,257.576 	"/>
	<path fill="#FFFFFF" d="M193.452,327.207l-51.195,51.195l45.452,45.459l24.938-24.941c2.039-2.041,4.901-2.994,7.754-2.6
		l78.777,10.99l7.576,1.061c8.5,1.182,17.063-1.688,23.132-7.75l89.208-89.209c6.173-6.182,6.313-16.234,0.182-22.463
		c-6.699-6.795-14.336-5.627-21.972,0.102l-57.409,43.039c-1.341,1.01-1.422,3.006-0.146,4.1c0.445,0.387,0.892,0.797,1.313,1.215
		c5.713,5.717,8.44,14.258,6.213,22.949c-1.586,6.178-5.545,11.336-11.062,14.541c-5.504,3.219-11.937,4.086-18.101,2.455
		l-58.763-15.486c-0.089-0.021-0.183-0.047-0.267-0.074l-0.032-0.018c-1.992-0.695-3.151-2.805-2.615-4.877l0.019-0.086
		c0.56-2.188,2.802-3.516,4.993-2.934l58.766,15.496c8.346,2.188,16.882-2.791,19.076-11.127c2.17-8.219-2.658-16.832-11.112-19.072
		l-77.97-20.551l-12.636-3.332C221.788,311.121,204.991,315.671,193.452,327.207"/>
	<path fill="#3F6D87" d="M378.623,240.381c0,36.327-29.449,65.769-65.771,65.769c-36.324,0-65.774-29.441-65.774-65.769
		c0-36.326,29.45-65.769,65.774-65.769C349.174,174.613,378.623,204.056,378.623,240.381"/>
	<path fill="#F68A46" d="M307.611,280.734v-9.395c-6.628-0.301-13.062-2.078-16.818-4.256l2.971-11.57
		c4.151,2.271,9.988,4.354,16.416,4.354c5.637,0,9.496-2.178,9.496-6.136c0-3.754-3.164-6.133-10.482-8.602
		c-10.586-3.566-17.806-8.507-17.806-18.103c0-8.699,6.134-15.53,16.711-17.603v-9.4h9.699v8.705
		c6.628,0.301,11.082,1.688,14.346,3.264l-2.873,11.186c-2.572-1.101-7.122-3.373-14.24-3.373c-6.432,0-8.505,2.769-8.505,5.544
		c0,3.265,3.459,5.337,11.863,8.504c11.771,4.148,16.519,9.59,16.519,18.494c0,8.804-6.235,16.318-17.6,18.3v10.086H307.611
		L307.611,280.734z"/>
	<path fill="#748994" d="M418.318,144.474c0,19.999-16.213,36.211-36.213,36.211s-36.209-16.213-36.209-36.211
		s16.209-36.203,36.209-36.203S418.318,124.475,418.318,144.474"/>
	<path fill="#F68A46" d="M379.223,166.695v-5.167c-3.654-0.164-7.19-1.146-9.259-2.347l1.632-6.368
		c2.286,1.246,5.5,2.386,9.041,2.386c3.104,0,5.223-1.195,5.223-3.369c0-2.076-1.736-3.381-5.769-4.744
		c-5.827-1.959-9.806-4.681-9.806-9.964c0-4.791,3.378-8.544,9.205-9.694v-5.172h5.341v4.791c3.646,0.168,6.101,0.932,7.892,1.8
		l-1.577,6.155c-1.414-0.596-3.923-1.854-7.841-1.854c-3.536,0-4.683,1.527-4.683,3.049c0,1.795,1.899,2.941,6.531,4.682
		c6.479,2.291,9.096,5.287,9.096,10.191c0,4.849-3.428,8.98-9.694,10.076v5.55H379.223L379.223,166.695z"/>
</g>
<g id="Picto_x5F_Contract_x5F_Management" display="none">
	<polygon display="inline" fill="#FF9933" points="445.01,166.006 148.733,166.006 0.593,422.589 148.733,679.177 445.01,679.177 
		593.153,422.589 	"/>
	<path display="inline" fill="#E6E7E7" d="M460.099,323.787v183.988c0,7.436-2.654,13.809-7.949,19.104
		c-5.3,5.301-11.668,7.947-19.109,7.947h-91.988c0,4.176,0.898,8.539,2.7,13.107c1.809,4.562,3.607,8.568,5.418,12.01
		c1.8,3.432,2.698,5.887,2.698,7.35c0,2.936-1.071,5.473-3.209,7.613c-2.141,2.141-4.682,3.209-7.607,3.209h-86.583
		c-2.935,0-5.471-1.068-7.611-3.209c-2.142-2.141-3.211-4.678-3.211-7.613c0-1.578,0.901-4.055,2.709-7.441
		c1.798-3.377,3.603-7.326,5.409-11.836c1.8-4.504,2.705-8.902,2.705-13.189h-91.992c-7.443,0-13.81-2.646-19.106-7.945
		c-5.302-5.295-7.95-11.668-7.95-19.104v-183.99c0-7.44,2.647-13.805,7.95-19.109c5.297-5.301,11.664-7.95,19.106-7.95H433.04
		c7.441,0,13.811,2.649,19.109,7.95C457.445,309.982,460.099,316.346,460.099,323.787 M438.454,464.48V323.787
		c0-1.465-0.535-2.728-1.608-3.806c-1.072-1.067-2.341-1.608-3.806-1.608H162.475c-1.467,0-2.732,0.541-3.803,1.608
		c-1.074,1.078-1.61,2.341-1.61,3.806V464.48c0,1.463,0.537,2.73,1.61,3.805c1.07,1.072,2.336,1.604,3.803,1.604H433.04
		c1.465,0,2.732-0.529,3.806-1.604C437.919,467.212,438.454,465.943,438.454,464.48"/>
	<path display="inline" fill="#3EA678" d="M198.836,459.781h-8.852c-1.195,0-2.239-0.441-3.109-1.314
		c-0.875-0.877-1.317-1.908-1.317-3.113v-115.08c0-1.199,0.442-2.232,1.317-3.113c0.87-0.877,1.914-1.313,3.109-1.313h8.852
		c1.203,0,2.234,0.437,3.114,1.313c0.875,0.881,1.314,1.914,1.314,3.113v115.08c0,1.205-0.439,2.236-1.314,3.113
		C201.071,459.339,200.039,459.781,198.836,459.781 M225.395,459.781h-8.853c-1.2,0-2.233-0.441-3.113-1.314
		c-0.875-0.877-1.313-1.908-1.313-3.113v-88.525c0-1.195,0.438-2.236,1.313-3.109c0.879-0.877,1.913-1.314,3.113-1.314h8.853
		c1.202,0,2.233,0.438,3.113,1.314c0.87,0.873,1.313,1.914,1.313,3.109v88.525c0,1.205-0.443,2.236-1.313,3.113
		C227.629,459.339,226.597,459.781,225.395,459.781 M251.954,459.781h-8.852c-1.202,0-2.239-0.441-3.113-1.314
		c-0.875-0.877-1.318-1.908-1.318-3.113V349.126c0-1.205,0.443-2.24,1.318-3.108c0.875-0.882,1.911-1.317,3.113-1.317h8.852
		c1.196,0,2.229,0.436,3.109,1.317c0.875,0.868,1.312,1.905,1.312,3.108v106.227c0,1.205-0.438,2.236-1.312,3.113
		C254.183,459.339,253.15,459.781,251.954,459.781 M278.508,459.781h-8.848c-1.202,0-2.238-0.441-3.113-1.314
		c-0.88-0.877-1.317-1.908-1.317-3.113v-79.667c0-1.205,0.438-2.241,1.317-3.112c0.875-0.883,1.911-1.318,3.113-1.318h8.848
		c1.2,0,2.234,0.437,3.114,1.318c0.875,0.872,1.313,1.908,1.313,3.112v79.667c0,1.205-0.438,2.236-1.313,3.113
		C280.742,459.339,279.708,459.781,278.508,459.781"/>
	<path display="inline" fill="#882F21" d="M363.228,395.175l36.436-44.067c24.338,20.127,27.756,56.173,7.628,80.505
		c-4.026,4.867-8.087,8.453-13.418,11.836L363.228,395.175z"/>
	<path display="inline" fill="none" stroke="#FFFFFF" stroke-width="8" stroke-miterlimit="10" d="M363.228,395.175l36.436-44.067
		c24.338,20.127,27.756,56.173,7.628,80.505c-4.026,4.867-8.087,8.453-13.418,11.836L363.228,395.175z"/>
	<path display="inline" fill="#0F4D79" d="M363.228,395.175l30.646,48.273c-21.326,13.541-47.617,11.891-67.086-4.209
		L363.228,395.175z"/>
	<path display="inline" fill="none" stroke="#FFFFFF" stroke-width="8" stroke-miterlimit="10" d="M363.228,395.175l30.646,48.273
		c-21.326,13.541-47.617,11.891-67.086-4.209L363.228,395.175z"/>
	<path display="inline" fill="#3EA678" d="M306.16,391.595c-1.19,18.912,6.019,35.576,20.627,47.645l36.44-44.059l36.436-44.066
		c-9.735-8.056-20.254-12.215-32.857-13.01C335.287,336.132,308.134,360.082,306.16,391.595"/>
	<path display="inline" fill="none" stroke="#FFFFFF" stroke-width="8" stroke-miterlimit="10" d="M306.16,391.595
		c-1.19,18.912,6.019,35.576,20.627,47.645l36.44-44.059l36.436-44.066c-9.735-8.056-20.254-12.215-32.857-13.01
		C335.287,336.132,308.134,360.082,306.16,391.595z"/>
</g>
<g id="Picto_x5F_Personal_x5F_Development" display="none">
	<polygon display="inline" fill="#FF9933" points="445.439,165.766 149.16,165.766 1.021,422.349 149.16,678.937 445.439,678.937 
		593.577,422.349 	"/>
	<path display="inline" fill="#3F6D87" d="M350.522,359.246l-29.832-1.836l-38.286,14.021c-1.723,0.632-3.509,0.923-5.291,0.863
		c-0.4,2.359-1.896,4.481-4.254,5.463l-5.978,2.582l8.969,20.932c1.496,3.5-0.172,7.582-3.623,9.082l-45.469,19.48
		c-3.449,1.5-7.531-0.172-9.026-3.621l-30.81-71.854c-1.494-3.504,0.114-7.582,3.623-9.082l45.408-19.485
		c3.509-1.496,7.591,0.112,9.082,3.617l8.968,20.928l5.982-2.586c2.241-0.922,4.768-0.633,6.723,0.578
		c1.496-1.729,3.45-3.104,5.81-3.974l32.704-11.95c7.358-2.705,15.409-3.908,23.227-3.396l46.618,2.873
		c5.52,0.351,11.095,2.246,15.636,5.404l11.441,7.818c4.481,2.99,8.045,7.414,10.341,12.305l19.031,40.527l36.791-17.309
		c7.186-3.392,15.809-0.287,19.199,6.899c3.337,7.187,0.223,15.81-6.959,19.2l-50.351,23.682
		c-6.095,2.822-15.521-0.572-18.398-6.664l-15.806-33.568l-37.54,55.004l45.646,31.158c6.036,4.082,9.541,12.941,7.986,20.064
		l-14.546,67.312c-1.949,9.021-10.978,14.826-20,12.881c-9.082-1.955-14.886-10.984-12.932-20.004l12.531-57.895l-55.244-37.766
		l-19.027,27.822c-4.31,6.328-11.841,11.041-19.432,12.129l-61.449,8.799c-9.142,1.322-17.764-5.123-19.027-14.316
		c-1.322-9.143,5.118-17.701,14.259-19.027l59.149-8.51L350.522,359.246z M271.309,370.914c-3.332-1.551-6.037-4.365-7.414-8.041
		c-1.15-3.168-1.091-6.441-0.118-9.437c-0.4-0.341-0.973-0.515-1.496-0.282l-5.973,2.582l8.218,19.2l6.037-2.526
		C271.136,372.123,271.427,371.548,271.309,370.914 M442.439,325.154c-9.022,13.223-27.072,16.613-40.245,7.592
		c-13.214-9.027-16.604-27.019-7.582-40.24c9.027-13.164,27.02-16.613,40.241-7.586
		C448.016,293.941,451.456,311.992,442.439,325.154"/>
	<path display="inline" fill="#3F6D87" d="M340.698,303.324l63.178,43.104c1.509,1.027,1.285,4.009-0.495,6.623
		c-1.782,2.609-4.474,3.898-5.986,2.873l-63.177-43.104c-1.51-1.032-1.286-4.005,0.49-6.623
		C336.49,303.591,339.185,302.291,340.698,303.324"/>
	<path display="inline" fill="#E6E7E7" d="M117.629,426.867h66.108c1.582,0,2.873,2.592,2.873,5.75s-1.291,5.75-2.873,5.75h-66.108
		c-1.582,0-2.873-2.592-2.873-5.75S116.047,426.867,117.629,426.867"/>
	<path display="inline" fill="#FFFFFF" d="M68.652,398.126h109.222c1.577,0,2.873,2.59,2.873,5.75c0,3.158-1.295,5.75-2.873,5.75
		H68.652c-1.582,0-2.873-2.592-2.873-5.75C65.779,400.716,67.07,398.126,68.652,398.126"/>
</g>
<g id="Picto_x5F_Legal" display="none">
	<polygon display="inline" fill="#FF9933" points="444.417,166.006 148.139,166.006 0,422.589 148.139,679.177 444.417,679.177 
		592.558,422.589 	"/>
	<path display="inline" fill="#3F6D87" d="M217.443,393.544h122.494c1.346,0,2.432,1.082,2.432,2.432v5.744
		c0,1.352-1.086,2.434-2.432,2.434H217.443c-1.345,0-2.432-1.082-2.432-2.434v-5.744
		C215.011,394.626,216.098,393.544,217.443,393.544 M217.443,414.767c-1.345,0-2.432,1.092-2.432,2.441v5.736
		c0,1.35,1.086,2.439,2.432,2.439h114.854l10.612-10.619H217.443V414.767z M311.159,446.607c0.564-0.568,1.052-1.141,1.619-1.709
		l8.904-8.898h-104.24c-1.345,0-2.433,1.08-2.433,2.432v5.744c0,1.352,1.087,2.434,2.433,2.434h93.717V446.607z M268.079,348.649
		c0,1.351,1.086,2.44,2.433,2.44h69.426c1.346,0,2.432-1.09,2.432-2.44v-5.735c0-1.346-1.086-2.44-2.432-2.44h-69.426
		c-1.347,0-2.433,1.095-2.433,2.44V348.649z M270.511,329.859h69.426c1.346,0,2.432-1.082,2.432-2.432v-5.746
		c0-1.346-1.086-2.432-2.432-2.432h-69.426c-1.347,0-2.433,1.086-2.433,2.432v5.746
		C268.079,328.777,269.165,329.859,270.511,329.859 M220.107,520.902c2.946,0.035,5.414-2.168,5.518-5.1
		c0.683-17.455,4.933-33.582,9.246-36.797c1.614,4.951,2.146,18.369,2.445,25.986c0.723,18.219,1.055,26.521,8.455,26.521
		c7.827,0,12.23-7.162,15.436-12.408c0.382-0.627,0.859-1.404,1.336-2.121c0.438,0.734,0.868,1.529,1.214,2.145
		c2.604,4.781,9.377,12.387,18.913,12.387c1.02,0,2.032-0.383,2.81-1.164l4.746-4.73c11.39,2.473,37.304-12.928,63.826-39.449
		l9.731-9.732l-30.021-30.008l-9.724,9.723c-26.537,26.535-41.928,52.443-39.44,63.854l-1.937,1.938
		c-6.127,0-8.137-3.318-10.673-7.914c-1.695-3.1-2.555-6.6-6.068-8.428c-6.73-3.453-11.148,3.684-13.763,7.979
		c-0.927,1.496-2.177,3.551-3.441,5.113c-0.396-3.914-0.623-9.572-0.8-14.127c-0.836-21.332-1.459-36.729-11.586-36.729
		c-18.059,0-20.863,36.287-21.309,47.551C214.907,518.312,217.184,520.792,220.107,520.902"/>
	<path display="inline" fill="#3F6D87" d="M374.211,547.433c0,2.938-2.373,5.314-5.306,5.314h-180.43
		c-2.933,0-5.306-2.377-5.306-5.314V351.085h31.842c11.723,0,21.227-9.504,21.227-21.227v-31.84h132.667
		c2.933,0,5.306,2.373,5.306,5.312v80.135l21.227-21.227v-64.222c0-11.718-9.504-21.224-21.227-21.224h-139.8
		c-5.627,0-11.027,2.236-15.009,6.215l-51.24,51.244c-3.98,3.986-6.218,9.381-6.218,15.01v203.484
		c0,11.717,9.5,21.223,21.227,21.223h191.041c11.723,0,21.227-9.506,21.227-21.223v-85.453l-21.227,21.227L374.211,547.433
		L374.211,547.433z"/>
	<path display="inline" fill="#3EA678" d="M488.842,378.667c-2.791-2.777-7.343-2.777-10.119-0.01l-6.299,6.305l-8.574-8.582
		c6.332-6.326,10.291-10.28,10.291-10.28c8.281-8.291,8.281-21.741,0-30.019c-8.291-8.295-21.736-8.295-30.027,0l-102.104,102.1
		l30.026,30.004c24.482-24.477,59.658-59.645,81.695-81.676l8.562,8.576l-50.56,50.555c-2.774,2.791-2.774,7.322,0,10.148
		c2.812,2.791,37.355-27.223,77.123-66.98C491.691,385.962,491.636,381.485,488.842,378.667"/>
</g>
</svg>
